<?xml version="1.0" standalone="no"?>
<!DOCTYPE svg PUBLIC "-//W3C//DTD SVG 20010904//EN"
 "http://www.w3.org/TR/2001/REC-SVG-20010904/DTD/svg10.dtd">
<svg version="1.0" xmlns="http://www.w3.org/2000/svg"
 width="1024.000000pt" height="1024.000000pt" viewBox="0 0 1024.000000 1024.000000"
 preserveAspectRatio="xMidYMid meet">
<metadata>
Created by potrace 1.11, written by Peter Selinger 2001-2013
</metadata>
<g transform="translate(0.000000,1024.000000) scale(0.100000,-0.100000)"
fill="#000000" stroke="none">
<path d="M4819 10236 c-2 -2 -44 -6 -94 -10 -224 -16 -465 -50 -655 -91 -41
-9 -86 -18 -100 -21 -53 -11 -226 -55 -250 -64 -14 -6 -34 -11 -45 -13 -11 -2
-27 -6 -35 -9 -8 -3 -67 -23 -130 -43 -130 -42 -300 -105 -375 -140 -27 -12
-60 -25 -73 -29 -38 -12 -376 -183 -479 -242 -54 -31 -107 -62 -117 -68 -11
-6 -25 -14 -30 -18 -6 -4 -82 -54 -168 -112 -397 -264 -719 -551 -1057 -941
-232 -268 -493 -662 -662 -1000 -64 -128 -99 -203 -175 -380 -97 -227 -238
-698 -277 -930 -3 -16 -12 -68 -21 -115 -14 -79 -39 -255 -51 -360 -27 -242
-27 -821 0 -1035 2 -16 7 -57 10 -90 3 -33 8 -69 10 -80 2 -11 7 -42 10 -70 3
-27 13 -83 21 -125 8 -41 17 -91 20 -110 11 -71 55 -258 90 -380 19 -69 37
-132 39 -140 10 -41 113 -328 153 -426 70 -174 207 -452 305 -619 73 -125 206
-336 217 -345 3 -3 17 -21 30 -40 62 -91 195 -265 276 -360 88 -103 130 -149
229 -250 188 -192 290 -286 481 -442 22 -18 56 -44 74 -58 18 -14 38 -29 44
-35 12 -11 28 -22 163 -116 238 -167 562 -350 818 -464 22 -10 58 -26 80 -35
147 -66 408 -159 575 -206 69 -19 136 -39 150 -43 23 -8 94 -25 145 -35 11 -3
52 -11 90 -19 39 -9 84 -18 100 -20 17 -3 68 -12 115 -21 47 -8 110 -18 140
-21 30 -4 66 -8 80 -11 14 -2 54 -6 90 -9 36 -3 74 -7 85 -10 11 -2 85 -7 165
-11 364 -18 756 1 1065 52 88 14 311 56 316 60 3 2 21 6 40 9 182 32 620 174
865 280 361 158 792 404 1019 582 6 4 37 28 70 53 75 56 70 52 195 156 227
190 455 420 640 644 34 41 72 86 83 100 43 51 206 278 269 375 249 384 436
775 578 1205 42 129 95 312 103 360 3 14 10 45 17 70 7 25 14 54 16 65 2 11
11 56 20 100 9 44 17 89 19 100 1 11 5 34 8 50 4 17 9 48 12 70 2 22 9 72 15
110 5 39 12 95 14 125 3 30 8 84 11 120 14 163 21 565 10 690 -2 25 -6 88 -10
140 -3 52 -8 108 -10 125 -2 16 -9 73 -16 125 -6 52 -13 104 -15 115 -2 10 -6
37 -10 60 -19 135 -88 437 -139 610 -117 402 -298 813 -518 1180 -56 94 -180
283 -216 331 -9 12 -23 32 -31 44 -58 86 -259 332 -371 455 -131 143 -400 397
-535 505 -125 100 -178 140 -286 216 -237 166 -416 274 -658 394 -85 43 -171
84 -190 93 -19 8 -56 24 -81 35 -298 133 -770 276 -1076 327 -46 7 -84 14
-113 20 -14 3 -45 8 -70 11 -25 3 -72 9 -105 14 -33 5 -94 12 -135 15 -41 4
-88 9 -105 11 -35 6 -700 15 -706 10z"/>
</g>
</svg>
